<svg width="30" height="31" viewBox="0 0 30 31" fill="none" xmlns="http://www.w3.org/2000/svg">
<path d="M28.3438 0.568359H1.65625C0.742187 0.568359 0 1.31055 0 2.22461V28.9121C0 29.8262 0.742187 30.5684 1.65625 30.5684H15V18.6934H11.4141V14.3184H15V11.084C15 7.20898 17.6875 5.09961 21.1484 5.09961C22.8047 5.09961 24.5859 5.22461 25 5.2793V9.32617H22.2422C20.3594 9.32617 20 10.2168 20 11.5293V14.3184H24.4844L23.8984 18.6934H20V30.5684H28.3438C29.2578 30.5684 30 29.8262 30 28.9121V2.22461C30 1.31055 29.2578 0.568359 28.3438 0.568359Z" fill="white"/>
</svg>
