<svg width="18" height="19" viewBox="0 0 18 19" fill="none" xmlns="http://www.w3.org/2000/svg">
<path d="M16.125 4.31836C15.0859 4.31836 14.25 3.48242 14.25 2.44336C14.25 1.4043 15.0859 0.568359 16.125 0.568359C17.1562 0.568359 18 1.4043 18 2.44336C18 3.48242 17.1562 4.31836 16.125 4.31836ZM8 5.56836C10.7578 5.56836 13 7.81055 13 10.5684C13 13.3262 10.7578 15.5684 8 15.5684C5.24219 15.5684 3 13.3262 3 10.5684C3 7.81055 5.24219 5.56836 8 5.56836ZM8 3.06836C3.85938 3.06836 0.5 6.42773 0.5 10.5684C0.5 14.709 3.85938 18.0684 8 18.0684C12.1406 18.0684 15.5 14.709 15.5 10.5684C15.5 6.42773 12.1406 3.06836 8 3.06836Z" fill="white"/>
</svg>
