<svg width="38" height="31" viewBox="0 0 38 31" fill="none" xmlns="http://www.w3.org/2000/svg">
<path d="M37.4375 4.12305C36.0781 4.72461 34.625 5.13086 33.0938 5.31836C34.6562 4.38086 35.8594 2.89648 36.4219 1.13086C34.9609 1.99805 33.3438 2.63086 31.6172 2.9668C30.2344 1.49023 28.2656 0.568359 26.0937 0.568359C21.9141 0.568359 18.5312 3.95898 18.5312 8.13867C18.5312 8.73242 18.5938 9.31055 18.7266 9.86523C12.4375 9.55273 6.85938 6.53711 3.13281 1.95117C2.48438 3.06836 2.10937 4.37305 2.10937 5.75586C2.10937 8.38086 3.45312 10.7012 5.48438 12.0605C4.23438 12.0293 3.0625 11.6855 2.04688 11.1152V11.209C2.04688 14.8809 4.65625 17.9355 8.11719 18.6309C7.48438 18.8027 6.8125 18.8965 6.125 18.8965C5.64062 18.8965 5.16406 18.8496 4.70312 18.7559C5.66406 21.7637 8.46094 23.9512 11.7734 24.0137C9.1875 26.0449 5.92188 27.2559 2.375 27.2559C1.76562 27.2559 1.16406 27.2168 0.570312 27.1465C3.90625 29.3184 7.88281 30.5684 12.1484 30.5684C26.0781 30.5684 33.6875 19.0293 33.6875 9.02148C33.6875 8.69336 33.6797 8.36523 33.6641 8.04492C35.1406 6.97461 36.4219 5.64648 37.4375 4.12305Z" fill="white"/>
</svg>
